/* XPM */
static char * ags_xpm[] = {
"32 32 57 1",
" 	c None",
".	c #C0C0C0",
"+	c #C1C1C1",
"@	c #BEBEBE",
"#	c #BDBDBD",
"$	c #C2C2C2",
"%	c #C3C3C3",
"&	c #C7C7C7",
"*	c #FFFFFF",
"=	c #E9E9E9",
"-	c #E5E5E5",
";	c #E7E7E7",
">	c #E6E6E6",
",	c #F5F5F5",
"'	c #FCFCFC",
")	c #A9A9A9",
"!	c #EAEAEA",
"~	c #E8E8E8",
"{	c #F4F4F4",
"]	c #BCBCBC",
"^	c #E4E4E4",
"/	c #DADADA",
"(	c #B3B3B3",
"_	c #A6A6A6",
":	c #FEFEFE",
"<	c #F9F9F9",
"[	c #A1A1A1",
"}	c #EBEBEB",
"|	c #F3F3F3",
"1	c #C5C5C5",
"2	c #C6C6C6",
"3	c #E2E2E2",
"4	c #B7B7B7",
"5	c #A7A7A7",
"6	c #B0B0B0",
"7	c #BABABA",
"8	c #B4B4B4",
"9	c #AAAAAA",
"0	c #D6D6D6",
"a	c #BBBBBB",
"b	c #E0E0E0",
"c	c #B6B6B6",
"d	c #B2B2B2",
"e	c #C8C8C8",
"f	c #ACACAC",
"g	c #C9C9C9",
"h	c #CCCCCC",
"i	c #B5B5B5",
"j	c #D2D2D2",
"k	c #D3D3D3",
"l	c #D5D5D5",
"m	c #CBCBCB",
"n	c #DBDBDB",
"o	c #D8D8D8",
"p	c #D4D4D4",
"q	c #CFCFCF",
"r	c #CACACA",
"                                ",
"                                ",
"                                ",
"                                ",
"                                ",
"                                ",
"                                ",
"                                ",
"                                ",
"                                ",
"                                ",
"                                ",
"   .++++.    @#@@.+$  %         ",
" &*=-;>-,') *****!!~  {]        ",
" ^/      *(_:*<=[     }|1&222&% ",
" 3}     4*(5*6         @.@;****+",
" 3*'<*****(5'       7      ****&",
" ->  8:***(9:04a]#&*b  8cde****1",
" 4    fgha  ijklllk2  mnopqrer$ ",
"                                ",
"                                ",
"                                ",
"                                ",
"                                ",
"                                ",
"                                ",
"                                ",
"                                ",
"                                ",
"                                ",
"                                ",
"                                "};
